<svg height="512pt" viewBox="-113 0 512 512.00205" width="512pt" xmlns="http://www.w3.org/2000/svg"><path d="m271.460938 148.707031c-13.703126-21.949219-35.046876-47.84375-60.09375-72.890625-25.046876-25.046875-50.9375-46.386718-72.890626-60.09375-26.402343-16.484375-43.785156-19.96875-53.101562-10.632812-9.789062 9.789062-5.410156 28.539062 13.390625 57.320312l2.214844 3.398438 26.332031 3.761718-11.945312 15.929688 4.414062 5.429688c9.65625 11.902343 20.488281 23.820312 31.96875 35.558593-4.21875-.171875-8.445312-.375-12.644531-.375-79.308594 0-139.105469 27.011719-139.105469 62.820313v260.246094c0 35.808593 59.796875 62.824218 139.105469 62.824218 79.304687 0 139.101562-27.015625 139.101562-62.824218v-244.617188c1.402344-.734375 2.738281-1.59375 3.898438-2.753906 9.324219-9.324219 5.839843-26.699219-10.644531-53.101563zm-132.363282-4.640625c10.769532 0 21.644532.59375 32.378906 1.777344.636719.582031 1.308594 1.175781 1.957032 1.769531 1.570312 1.433594 3.167968 2.871094 4.78125 4.324219 1.464844 1.3125 2.910156 2.613281 4.398437 3.921875 2.574219 2.253906 5.195313 4.496094 7.851563 6.730469 1.222656 1.023437 2.441406 2.011718 3.671875 3.027344 2.089843 1.722656 4.191406 3.417968 6.316406 5.097656.96875.773437 1.941406 1.535156 2.917969 2.296875 6.453125 5.027343 12.960937 9.773437 19.375 14.054687.59375.394532 1.175781.773438 1.777344 1.15625 2.511718 1.644532 4.992187 3.195313 7.449218 4.675782.925782.558593 1.851563 1.113281 2.765625 1.644531 2.109375 1.210937 4.171875 2.324219 6.21875 3.382812 2.34375 1.222657 4.605469 2.28125 6.839844 3.277344.984375.429687 1.992187.914063 2.949219 1.300781.648437.261719 1.339844.628906 1.964844.859375-12.894532 12.738281-41.882813 24.304688-80.605469 28.636719-1.660157.179688-3.304688.371094-5 .53125-1.667969.152344-3.363281.285156-5.070313.414062-2.308594.167969-4.648437.320313-7.019531.4375-1.371094.070313-2.746094.152344-4.144531.199219-3.859375.140625-7.773438.242188-11.785156.242188-71.398438 0-121.152344-23.648438-121.152344-44.871094 0-21.226563 49.761718-44.886719 121.164062-44.886719zm-121.15625 171.65625c6.625 2.242188 25.417969 7.261719 25.417969 7.261719 59.742187 14.007813 67.425781 15.8125 73.375 64.023437.699219 5.722657.214844 13.453126-6.074219 17.832032-4.921875 3.425781-25.496094 12.238281-83.867187-17.933594-3.070313-1.585938-6.003907-3.21875-8.847657-4.898438-.003906 0-.003906-66.285156-.003906-66.285156zm242.3125 133.476563c0 21.222656-49.753906 44.871093-121.15625 44.871093-71.398437 0-121.152344-23.648437-121.152344-44.871093v-10.984375c24.339844 21.921875 70.609376 37.441406 121.152344 37.441406 50.542969 0 96.816406-15.527344 121.15625-37.441406zm0-44.871094c0 21.5-50.878906 53.378906-121.15625 53.378906s-121.152344-31.886719-121.152344-53.378906v-1.796875c.195313.109375.410157.234375.609376.332031 34.675781 17.914063 58.925781 23.871094 75.851562 23.871094 12.332031-.007813 20.765625-3.167969 26.5-7.160156 10.644531-7.402344 15.492188-19.753907 13.632812-34.757813-7.386718-59.949218-28.117187-65.234375-87.679687-79.210937 0 0-21.304687-6.144531-28.914063-8.929688v-31.519531c23.46875 18.839844 67.910157 31.007812 121.152344 31.007812 53.246094 0 97.6875-12.167968 121.15625-31.007812zm0-170.984375c0 21.226562-49.753906 44.875-121.15625 44.875-71.398437 0-121.152344-23.648438-121.152344-44.875v-12.589844c.5.40625 1.136719.753906 1.660157 1.148438 2.046875 1.5625 4.234375 3.070312 6.566406 4.535156.953125.589844 1.886719 1.183594 2.882813 1.765625 2.898437 1.679687 5.957031 3.292969 9.226562 4.820313.429688.195312.804688.421874 1.246094.625 3.722656 1.699218 7.71875 3.261718 11.882812 4.75 1.164063.421874 2.394532.796874 3.597656 1.203124 3.210938 1.066407 6.53125 2.070313 9.96875 3.015626 1.375.375 2.722657.753906 4.128907 1.101562 4.386719 1.105469 8.902343 2.128906 13.605469 3.015625.34375.0625.664062.152344 1.015624.214844 5.03125.933593 10.285157 1.699219 15.632813 2.371093 1.542969.195313 3.121094.347657 4.691406.519532 4.074219.441406 8.21875.808594 12.4375 1.097656 1.679688.113281 3.339844.242188 5.035157.320312 5.753906.296876 11.585937.503907 17.570312.503907 5.746094 0 11.363281-.199219 16.917969-.484375 1.714843-.089844 3.410156-.179688 5.097656-.296875 4.433594-.304688 8.804687-.683594 13.085937-1.160157 2.917969-.3125 5.734376-.707031 8.5625-1.109374 2.339844-.332032 4.675782-.675782 6.953126-1.0625 2.988281-.492188 5.914062-1.019532 8.785156-1.605469.457031-.089844.898437-.207031 1.355468-.292969 6.632813-1.394531 12.90625-3.007812 18.867188-4.820312.277344-.082032.554688-.167969.824219-.25 9.386719-2.917969 17.824219-6.328126 25.226562-10.207032.296875-.152344.59375-.304687.882813-.457031 5.410156-2.886719 10.445312-5.929687 14.601562-9.269531zm9.007813-44.457031-1.417969-.082031c-12.492188-.726563-44.808594-19.222657-86.269531-58.089844l-2.144531-2.019532h-.039063c-3.472656-3.304687-7-6.714843-10.597656-10.3125-10.992188-10.996093-21.269531-22.195312-30.636719-33.367187l21.699219-28.933594-48.246094-6.890625c-13.003906-20.6875-13.480469-29.148437-13.308594-31.296875 9.539063-1.640625 49.117188 19.359375 100.378907 70.601563 51.277343 51.308594 72.414062 91.109375 70.582031 100.390625zm0 0"/><path d="m94.261719 153.742188 8.902343 15.578124-62.8125 35.898438-8.902343-15.578125zm63.257812 15.265624-80.777343 53.84375-9.953126-14.933593 80.777344-53.84375zm36.320313 8.695313-71.796875 53.847656-10.757813-14.351562 71.796875-53.847657zm27.148437 17.777344-44.871093 35.898437-11.21875-14.027344 44.871093-35.898437zm0 0"/></svg>