<?xml version="1.0" encoding="UTF-8" standalone="no"?>
<svg
   xmlns:dc="http://purl.org/dc/elements/1.1/"
   xmlns:cc="http://creativecommons.org/ns#"
   xmlns:rdf="http://www.w3.org/1999/02/22-rdf-syntax-ns#"
   xmlns:svg="http://www.w3.org/2000/svg"
   xmlns="http://www.w3.org/2000/svg"
   xmlns:sodipodi="http://sodipodi.sourceforge.net/DTD/sodipodi-0.dtd"
   xmlns:inkscape="http://www.inkscape.org/namespaces/inkscape"
   height="650"
   viewBox="0 0 102.07027 76.171723"
   width="871"
   version="1.1"
   id="svg18"
   sodipodi:docname="cheese_sausage.svg"
   inkscape:version="0.92.2 (5c3e80d, 2017-08-06)">
  <metadata
     id="metadata24">
    <rdf:RDF>
      <cc:Work
         rdf:about="">
        <dc:format>image/svg+xml</dc:format>
        <dc:type
           rdf:resource="http://purl.org/dc/dcmitype/StillImage" />
        <dc:title></dc:title>
      </cc:Work>
    </rdf:RDF>
  </metadata>
  <defs
     id="defs22" />
  <sodipodi:namedview
     pagecolor="#ffffff"
     bordercolor="#666666"
     borderopacity="1"
     objecttolerance="10"
     gridtolerance="10"
     guidetolerance="10"
     inkscape:pageopacity="0"
     inkscape:pageshadow="2"
     inkscape:window-width="1857"
     inkscape:window-height="1025"
     id="namedview20"
     showgrid="false"
     inkscape:zoom="0.4609375"
     inkscape:cx="256"
     inkscape:cy="256"
     inkscape:window-x="63"
     inkscape:window-y="27"
     inkscape:window-maximized="1"
     inkscape:current-layer="svg18" />
  <g
     id="Page-1"
     style="fill:none;fill-rule:evenodd"
     transform="translate(-15.508474,-20.438278)">
    <g
       id="028---Black-Pudding"
       style="fill:#000000;fill-rule:nonzero"
       transform="translate(56.440678,36.864407)">
      <path
         id="Shape"
         d="M 52.2,0.02 C 51.802349,-0.05981083 51.395874,0.10846746 51.171,0.446 50.419177,1.5844814 49.848399,2.8326372 49.479,4.146 49.065,3.926 48.649,3.709 48.215,3.519 43.842916,1.6003139 38.887111,1.4999082 34.440901,3.2399335 29.99469,4.9799588 26.423435,8.4174316 24.515,12.794 21.1,20.594 13.175,24.474 11.621,25.173 l 0.008,0.018 C 5.5534948,27.502602 1.1975607,32.911931 0.23480876,39.340646 -0.72794314,45.769361 1.85225,52.21743 6.9840417,56.207416 12.115833,60.197401 19.000937,61.108632 24.994,58.591 28.8,57.057 48.253,48.331 57.486,27.215 c 1.930359,-4.368138 2.030483,-9.32751 0.278,-13.77 -0.442836,-1.129228 -0.997602,-2.211289 -1.656,-3.23 1.320414,-0.6449637 2.534444,-1.48804 3.6,-2.5 C 59.991291,7.4321845 60.07863,7.0076815 59.93,6.636 58.560325,3.3208822 55.68682,0.86148838 52.2,0.02 Z M 2,42 C 2,33.163444 9.163444,26 18,26 26.836556,26 34,33.163444 34,42 34,50.836556 26.836556,58 18,58 9.1677843,57.98953 2.0104696,50.832216 2,42 Z M 55.654,26.409 C 49.887,39.6 39.994,47.781 32.722,52.324 36.588682,46.832833 37.071684,39.644112 33.974329,33.685039 30.876975,27.725967 24.715955,23.990617 18,24 17.833,24 17.67,24.021 17.5,24.025 21.326813,21.398147 24.38109,17.795233 26.346,13.59 29.885869,5.4968193 39.316319,1.8056309 47.4095,5.3455 55.502681,8.8853691 59.193869,18.315819 55.654,26.409 Z M 54.9,8.569 C 53.850525,7.28616 52.626652,6.1565339 51.264,5.213 51.511025,4.1450815 51.91259,3.1189335 52.456,2.167 54.768071,2.9316338 56.686086,4.5759031 57.795,6.744 56.927072,7.4941935 55.951132,8.1094235 54.9,8.569 Z"
         inkscape:connector-curvature="0" />
      <path
         id="path3"
         d="m 19,29 c -2.209139,0 -4,1.790861 -4,4 0,2.209139 1.790861,4 4,4 2.209139,0 4,-1.790861 4,-4 0,-2.209139 -1.790861,-4 -4,-4 z m 0,6 c -1.10457,0 -2,-0.895431 -2,-2 0,-1.104569 0.89543,-2 2,-2 1.104569,0 2,0.89543 2,2 0,1.104569 -0.895431,2 -2,2 z"
         inkscape:connector-curvature="0" />
      <path
         id="path5"
         d="m 10,42 c -2.209139,0 -4,1.790861 -4,4 0,2.209139 1.790861,4 4,4 2.209139,0 4,-1.790861 4,-4 0,-2.209139 -1.790861,-4 -4,-4 z m 0,6 c -1.1045695,0 -2,-0.895431 -2,-2 0,-1.104569 0.8954305,-2 2,-2 1.10457,0 2,0.895431 2,2 0,1.104569 -0.89543,2 -2,2 z"
         inkscape:connector-curvature="0" />
      <path
         id="path7"
         d="m 25,46 c -1.656854,0 -3,1.343146 -3,3 0,1.656854 1.343146,3 3,3 1.656854,0 3,-1.343146 3,-3 0,-1.656854 -1.343146,-3 -3,-3 z m 0,4 c -0.552285,0 -1,-0.447715 -1,-1 0,-0.552285 0.447715,-1 1,-1 0.552285,0 1,0.447715 1,1 0,0.552285 -0.447715,1 -1,1 z"
         inkscape:connector-curvature="0" />
      <circle
         id="Oval"
         cx="9"
         cy="38"
         r="1" />
      <circle
         id="circle10"
         cx="27"
         cy="39"
         r="1" />
      <circle
         id="circle12"
         cx="18"
         cy="53"
         r="1" />
      <circle
         id="circle14"
         cx="18"
         cy="42"
         r="1" />
    </g>
  </g>
  <path
     style="stroke-width:0.0926031"
     inkscape:connector-curvature="0"
     d="m 28.511062,24.258423 c -0.0993,-0.193056 -0.21738,-0.38174 -0.34723,-0.565114 -0.0838,-0.118395 -0.18137,-0.230543 -0.27771,-0.34519 -0.0683,-0.08185 -0.13697,-0.162756 -0.21069,-0.242103 -0.111,-0.118708 -0.22661,-0.232418 -0.34933,-0.344566 -0.0708,-0.06435 -0.14661,-0.125269 -0.22032,-0.187121 -0.23164,-0.192744 -0.47835,-0.37112 -0.74349,-0.538561 -0.0951,-0.06029 -0.18639,-0.124643 -0.28567,-0.180874 -0.12524,-0.07122 -0.25425,-0.133077 -0.3841,-0.198055 -0.15288,-0.07622 -0.30828,-0.148072 -0.46703,-0.214611 -0.10848,-0.04498 -0.21613,-0.08934 -0.32797,-0.129642 -0.28357,-0.103089 -0.57133,-0.195557 -0.86747,-0.263657 -0.24169,-0.05561 -0.48128,-0.09403 -0.72003,-0.123707 -0.049,-0.0059 -0.098,-0.01156 -0.14744,-0.01593 -0.48756,-0.04967 -0.96381,-0.04592 -1.41534,0.01125 -0.0101,0.0015 -0.0214,0.0031 -0.0318,0.0047 -0.59479,0.07935 -1.14686,0.245227 -1.61892,0.504822 -0.0473,0.02593 -0.08,0.06217 -0.12608,0.08872 -0.12691,0.07622 -0.24294,0.162754 -0.35561,0.252098 -0.0787,0.06248 -0.16462,0.11902 -0.23457,0.187121 -0.14827,0.142138 -0.28064,0.295522 -0.39415,0.46265 -0.002,0.0031 -10e-4,0.0062 -0.003,0.0094 -0.29572,0.439221 -0.45949,0.944044 -0.45949,1.500097 0,2.063024 2.15255,4.177276 4.90072,4.812056 0.51897,0.11996 1.03627,0.17869 1.53388,0.17869 0.89344,0 1.72572,-0.19025 2.39968,-0.56043 1.01407,-0.55762 1.57325,-1.44605 1.57325,-2.500058 0,-0.540123 -0.15372,-1.081807 -0.42096,-1.600999 0.001,-3e-4 0.001,-3e-4 0.001,-9.23e-4 z m -7.40259,-1.44824 c 0.0972,-0.07622 0.20859,-0.139639 0.32839,-0.194619 0.0687,-0.03186 0.14367,-0.05654 0.21948,-0.08091 0.1043,-0.03436 0.21195,-0.0656 0.32755,-0.08622 0.085,-0.01468 0.17425,-0.02093 0.26431,-0.02749 0.1332,-0.01062 0.2664,-0.02062 0.40881,-0.01437 0.0377,0.0012 0.0767,0.0037 0.11561,0.0075 0.20985,0.01531 0.42724,0.04342 0.65217,0.09528 0.21195,0.04905 0.41803,0.116209 0.62076,0.191182 0.0419,0.01499 0.0829,0.03124 0.12398,0.04717 0.41175,0.164942 0.79878,0.377993 1.14308,0.627905 0.0172,0.01281 0.0356,0.02499 0.0532,0.03874 0.333,0.247726 0.6216,0.528565 0.85826,0.826584 0.0348,0.04499 0.0695,0.08934 0.10262,0.135266 0.0214,0.02968 0.0364,0.06092 0.0582,0.0909 -0.51018,0.424539 -1.36927,0.549807 -2.35444,0.324574 -1.22015,-0.282713 -2.34062,-1.027451 -2.96598,-1.949313 0.0142,-0.01218 0.0297,-0.02124 0.044,-0.03217 z m 5.0335,4.321913 c -0.52735,0.29021 -1.27712,0.34269 -2.1115,0.15183 -1.30686,-0.3024 -2.45832,-1.141791 -3.04515,-2.090519 0.72841,0.479518 1.56111,0.853136 2.43863,1.05619 0.51814,0.119333 1.03041,0.177438 1.5209,0.177438 0.69322,0 1.34163,-0.120895 1.91002,-0.339881 -0.0624,0.450467 -0.30325,0.820332 -0.7129,1.044942 z m 0,0"
     id="path894" />
  <path
     style="stroke-width:0.0926031"
     inkscape:connector-curvature="0"
     d="m 42.589962,26.500133 c -1.11209,-0.256471 -2.21287,-0.145885 -3.02631,0.301773 -0.77909,0.4286 -1.22601,1.13366 -1.22601,1.93494 0,1.53883 1.60216,3.1139 3.64747,3.58593 0.39415,0.0909 0.78622,0.1362 1.16654,0.1362 0.68987,0 1.33534,-0.14839 1.85976,-0.43704 0.77951,-0.42828 1.22602,-1.13272 1.22602,-1.934 -10e-4,-1.53977 -1.603,-3.1164 -3.64747,-3.587803 z m 1.20465,4.292243 c -0.28902,0.15869 -0.71794,0.18462 -1.20549,0.0715 -1.19503,-0.27553 -2.20407,-1.25019 -2.20407,-2.12707 0,-0.22304 0.0679,-0.52637 0.39331,-0.706 0.1709,-0.0931 0.38913,-0.1412 0.64003,-0.1412 0.1755,0 0.36483,0.0228 0.56546,0.0694 1.19503,0.27584 2.20408,1.2505 2.20408,2.12831 0,0.22305 -0.0675,0.52607 -0.39332,0.70507 z m 0,0"
     id="path896" />
  <path
     style="stroke-width:0.0926031"
     inkscape:connector-curvature="0"
     d="m 13.913622,24.972858 c -1.111243,-0.256783 -2.213278,-0.145885 -3.026294,0.301457 -0.779508,0.4286 -1.2260174,1.133664 -1.2260174,1.934941 0,1.53915 1.6017384,3.11391 3.6470564,3.58624 0.394565,0.0906 0.786625,0.13589 1.166535,0.13589 0.69029,0 1.33535,-0.14807 1.85976,-0.43703 0.77951,-0.42829 1.22602,-1.13273 1.22602,-1.93401 -8.2e-4,-1.53977 -1.60299,-3.116403 -3.64706,-3.587488 z m 1.20424,4.291618 c -0.2886,0.159 -0.71793,0.184 -1.20549,0.0718 -1.195023,-0.27584 -2.20365,-1.25019 -2.20365,-2.12738 0,-0.22273 0.06743,-0.52606 0.392895,-0.705688 0.171316,-0.09309 0.389544,-0.1412 0.640444,-0.1412 0.175087,0 0.364412,0.02281 0.565468,0.06935 1.195023,0.275838 2.203653,1.250498 2.203653,2.127998 0,0.22336 -0.0674,0.52638 -0.39332,0.70507 z m 0,0"
     id="path898" />
  <path
     style="stroke-width:0.0926031"
     inkscape:connector-curvature="0"
     d="m 35.421082,31.798266 c -0.82977,-0.19024 -1.66331,-0.10684 -2.28616,0.23586 -0.59898,0.32988 -0.94203,0.86626 -0.94203,1.4726 0,1.11149 1.1523,2.24734 2.62293,2.58722 0.29069,0.0672 0.58181,0.1009 0.86454,0.1009 0.52442,0 1.017,-0.11371 1.42162,-0.33613 0.59898,-0.32989 0.94329,-0.86688 0.94329,-1.47355 -0.003,-1.1121 -1.15481,-2.24764 -2.62419,-2.5869 z m 0.46368,2.82901 c -0.0901,0.0497 -0.26723,0.0522 -0.46368,0.007 -0.61866,-0.14308 -1.17994,-0.6807 -1.17994,-1.12836 0,-0.055 0.0113,-0.18868 0.10974,-0.2421 0.0461,-0.0259 0.11644,-0.0391 0.20273,-0.0391 0.0775,0 0.16671,0.0109 0.26096,0.0322 0.61866,0.14276 1.17952,0.67976 1.17952,1.12742 4e-4,0.055 -0.0109,0.18774 -0.10933,0.24272 z m 0,0"
     id="path900" />
  <path
     style="stroke-width:0.0926031"
     inkscape:connector-curvature="0"
     d="m 34.084482,27.012136 c 0.2907,0.0672 0.5818,0.10091 0.86537,0.10091 0.52359,0 1.01701,-0.11403 1.42164,-0.33613 0.59939,-0.329888 0.94244,-0.866262 0.94244,-1.472612 0,-1.111483 -1.15229,-2.247333 -2.62293,-2.587213 -0.8327,-0.191808 -1.66415,-0.106212 -2.28533,0.236167 -0.59898,0.329884 -0.94328,0.866882 -0.94328,1.473231 -6.9e-4,1.109921 1.15146,2.246397 2.62209,2.585647 z m -0.46368,-2.829311 c 0.0469,-0.02593 0.1177,-0.03874 0.20231,-0.03874 0.0779,0 0.16713,0.01062 0.26137,0.03186 0.61867,0.142763 1.17953,0.680698 1.17953,1.128041 0,0.05529 -0.0113,0.188682 -0.10933,0.242415 -0.088,0.04967 -0.26723,0.05092 -0.4641,0.0069 -0.61867,-0.142763 -1.17952,-0.679762 -1.17952,-1.127416 -0.001,-0.05498 0.01,-0.188683 0.10974,-0.24304 z m 0,0"
     id="path902" />
  <path
     style="stroke-width:0.0926031"
     inkscape:connector-curvature="0"
     d="m 11.708722,17.282442 c 0,-1.189269 -1.234395,-2.406028 -2.8105835,-2.771211 -0.883805,-0.205554 -1.766354,-0.113086 -2.421877,0.24835 -0.632067,0.347377 -0.995642,0.91499 -0.995642,1.557576 0,1.189893 1.235233,2.406652 2.811422,2.770274 0.310379,0.07185 0.619501,0.106838 0.919408,0.106838 0.5541571,0 1.0764825,-0.119958 1.5024685,-0.354251 0.633323,-0.347689 0.994804,-0.914989 0.994804,-1.557576 z m -2.2103504,0.327072 c -0.1260781,0.06935 -0.3531021,0.07716 -0.6002331,0.01906 -0.728825,-0.168691 -1.369269,-0.780662 -1.369269,-1.311413 0,-0.08966 0.02178,-0.250536 0.1621,-0.328634 0.06953,-0.03811 0.168803,-0.05717 0.285666,-0.05717 0.09508,0 0.201893,0.01281 0.315406,0.03873 0.729243,0.169004 1.3684311,0.7816 1.3684311,1.312351 -4.03e-4,0.08934 -0.02094,0.250536 -0.162101,0.327072 z m 0,0"
     id="path904" />
  <path
     style="stroke-width:0.0926031"
     inkscape:connector-curvature="0"
     d="m 50.656462,27.672846 c 0.0164,-0.0528 0.0473,-0.0978 0.0716,-0.14682 0.0239,-0.0472 0.0402,-0.0978 0.07,-0.14058 10e-4,-0.003 0.006,-0.005 0.008,-0.008 0.0565,-0.0787 0.12608,-0.14901 0.20483,-0.21242 0.10346,-0.0834 0.22745,-0.14901 0.36651,-0.20025 0.0281,-0.0106 0.0587,-0.0184 0.0871,-0.0275 0.13319,-0.0412 0.2777,-0.0694 0.43435,-0.0825 0.0214,-0.001 0.0411,-0.006 0.0633,-0.007 0.13111,-0.008 0.26975,-0.003 0.41091,0.009 0.0164,0.001 0.0314,0 0.0481,0.001 h 6.9e-4 c 0.0113,9.3e-4 0.0256,0.006 0.0381,0.007 0.12692,0.0153 0.253,0.0384 0.39249,0.0718 0.0817,0.02 0.17173,0.0491 0.26094,0.0765 0.054,0.0169 0.10933,0.0306 0.16378,0.0481 0.0587,0.02 0.11896,0.0306 0.18011,0.0412 0.0218,0.004 0.0423,0.0116 0.0637,0.0144 0.0746,0.01 0.14954,0.0116 0.2241,0.009 0.009,0 0.0188,0.001 0.0281,6.2e-4 0.0796,-0.004 0.15876,-0.0159 0.2354,-0.0344 0.004,-6.2e-4 0.008,-6.2e-4 0.013,-0.001 0.0503,-0.0122 0.0963,-0.0331 0.14367,-0.0512 0.0298,-0.0116 0.0615,-0.0184 0.0888,-0.0322 0.20902,-0.1 0.35436,-0.25272 0.42431,-0.42454 0.0276,-0.07029 0.0461,-0.142137 0.0461,-0.216799 v -1.7067 c 0,-1.643796 -1.03543,-3.224802 -2.77163,-4.236946 L 34.157782,7.868882 c -0.37572,-0.2652185 -0.95626,-0.2805255 -1.35377,-0.0353 -0.32043,0.197118 -0.79458,0.237729 -1.33869,0.111523 -1.27209,-0.2939585 -2.34648,-1.3320295 -2.34648,-2.2670135 0,-0.193369 0.0503,-0.365184 0.1487,-0.510133 0.20356,-0.301768 0.1177,-0.666952 -0.20985,-0.899058 l -3.05227,-2.1523701 c -0.0268,-0.01843 -0.054,-0.03592 -0.0829,-0.05186 -2.38334,-1.35515302 -5.30744,-1.77906802 -7.48972,-1.06556702 L 3.2858075,6.4484395 C 1.5630165,7.0035555 0.44883554,8.305285 0.44464654,9.774142 l -8.25e-4,0.0031 v 12.034235 c 0,0.226795 0.135293,0.441407 0.368601,0.587293 0.23372596,0.144324 0.53865996,0.203991 0.83982396,0.164317 0.340956,-0.04811 0.704531,-0.02749 1.076483,0.05873 1.537234,0.355187 2.836134,1.610995 2.836134,2.743721 0,0.437033 -0.201893,0.789097 -0.5684,0.990589 -0.410068,0.225545 -0.998573,0.265219 -1.662474,0.111836 -0.406718,-0.09403 -0.8193,-0.26522 -1.223505,-0.507947 -0.308285,-0.183373 -0.729243,-0.221484 -1.085697,-0.09309 -0.35561696,0.126831 -0.58096596,0.394548 -0.58096596,0.688195 v 1.651915 c 0,1.64317 1.49241596,3.06924 3.58883396,3.45785 l 44.7397865,9.82903 c 0.38912,0.0731 0.78244,0.1084 1.1724,0.1084 1.05428,0 2.08344,-0.26053 2.93876,-0.75848 1.17156,-0.68195 1.84217,-1.70784 1.84217,-2.8162 v -6.37025 c 0,-0.18806 -0.0909,-0.36144 -0.24462,-0.49483 -0.15373,-0.13464 -0.36902,-0.22992 -0.61741,-0.25991 -0.0218,-0.002 -0.0431,-0.009 -0.0645,-0.0122 -0.90768,-0.12683 -1.80488,-0.60416 -2.41727,-1.22675 -0.29278,-0.29865 -0.50891,-0.63009 -0.64086,-0.9706 -0.0368,-0.0965 -0.0779,-0.19181 -0.0997,-0.28896 -0.0298,-0.13652 -0.0419,-0.26959 -0.039,-0.39392 0.002,-0.0659 0.0188,-0.12465 0.0289,-0.18588 0.008,-0.0506 0.01,-0.10433 0.0252,-0.15151 z M 4.1369005,7.837018 19.288502,2.3855004 c 1.46561,-0.477332 3.56077,-0.135889 5.35016,0.868444 l 2.52994,1.7843721 c -0.0645,0.204928 -0.0963,0.417978 -0.0963,0.639462 0,1.5985 1.66414,3.2347985 3.78946,3.7258755 0.86119,0.199305 1.71442,0.182435 2.44157,-0.03655 l 16.30055,11.50095 -17.61956,-3.913935 c -0.44985,-1.300792 -1.87358,-2.487873 -3.62695,-2.892107 -1.14769,-0.264906 -2.287,-0.151196 -3.13101,0.311141 -0.41468,0.22742 -0.73218,0.524503 -0.94622,0.870631 L 3.6443155,10.66321 c -0.634161,-0.0909 -1.002762,-0.416415 -1.093656,-0.968721 -0.0063,-0.03436 -0.0289,-0.0656 -0.04231,-0.09903 0.08294,-0.780038 0.686101,-1.454487 1.628547,-1.758443 z m 25.9604115,9.951184 c 0,0.242101 -0.0746,0.572922 -0.43311,0.769104 -0.3154,0.174313 -0.77825,0.202429 -1.30686,0.08091 -0.15875,-0.03655 -0.3154,-0.08466 -0.46577,-0.143387 -0.90643,-0.349877 -1.63986,-1.058065 -1.83128,-1.767504 -0.0318,-0.116832 -0.0482,-0.233979 -0.0482,-0.349251 0.004,-0.01655 0.0176,-0.09996 0.0193,-0.11621 0.002,-0.01812 -0.007,-0.03498 -0.006,-0.05248 0.0314,-0.213363 0.1353,-0.451404 0.41845,-0.607287 0.18765,-0.103401 0.42724,-0.155257 0.7016,-0.155257 0.18849,0 0.39331,0.02468 0.60735,0.07404 1.19,0.275215 2.19402,1.199265 2.32093,2.083016 6.9e-4,0.0069 -0.001,0.01312 -0.001,0.01999 z m 22.57766,20.239744 c 0,0.63416 -0.38369,1.22207 -1.05471,1.61162 -0.67102,0.39205 -1.52593,0.52544 -2.31255,0.38143 L 4.5691695,30.191956 c -1.223086,-0.22835 -2.077151,-1.04432 -2.077151,-1.98524 v -0.33988 c 0.07875,0.0212 0.157912,0.0419 0.236658,0.0597 1.280052,0.29646 2.547956,0.17088 3.482024,-0.34144 0.903492,-0.4967 1.401104,-1.285482 1.401104,-2.219841 0,-1.80249 -1.879447,-3.648716 -4.277867,-4.202583 -0.28064,-0.06498 -0.563374,-0.109961 -0.842757,-0.132765 v -9.03526 c 0.209852,0.06716 0.433106,0.117458 0.666833,0.150259 l 20.8372685,4.62959 c 0.006,0.03686 0.0226,0.07279 0.031,0.109337 0.0172,0.08028 0.0427,0.159631 0.0674,0.239916 0.0339,0.10996 0.0729,0.217735 0.12105,0.326134 0.0356,0.08153 0.0767,0.161194 0.12064,0.24054 0.0566,0.103089 0.11812,0.204616 0.18639,0.304893 0.0536,0.07935 0.10974,0.156507 0.17006,0.23273 0.0771,0.09715 0.15917,0.189621 0.24587,0.282089 0.0687,0.0731 0.13739,0.145886 0.21195,0.216798 0.0955,0.08934 0.1977,0.172753 0.30242,0.255848 0.0808,0.06498 0.15959,0.130579 0.24546,0.19087 0.11477,0.08153 0.23791,0.154946 0.3619,0.229295 0.0867,0.05248 0.17089,0.107462 0.26179,0.156507 0.14241,0.0756 0.2932,0.139638 0.44483,0.203991 0.0817,0.03499 0.15959,0.0756 0.24462,0.107462 0.23959,0.09028 0.4863,0.16744 0.74139,0.22617 0.25718,0.05967 0.51311,0.09309 0.7661,0.114647 0.0687,0.0059 0.1353,0.0081 0.20273,0.01187 0.0787,0.0041 0.16001,0.01406 0.23875,0.01406 0.14032,0 0.27646,-0.01093 0.41259,-0.02218 0.0256,-0.0025 0.0523,-0.0015 0.0779,-0.0047 0.23456,-0.02437 0.45865,-0.07029 0.67479,-0.129017 0.0503,-0.01406 0.0993,-0.02936 0.14869,-0.0453 0.21404,-0.06779 0.42097,-0.146511 0.6082,-0.2496 0.18137,-0.09996 0.33802,-0.216798 0.48127,-0.341442 0.0381,-0.03217 0.0729,-0.0656 0.10849,-0.09934 0.12398,-0.119958 0.23582,-0.247413 0.32588,-0.385801 0.008,-0.01218 0.0184,-0.02218 0.0264,-0.03436 0.075,-0.11902 0.13864,-0.242726 0.18765,-0.373305 l 18.49749,4.106367 c 1.2566,0.200867 2.16805,1.040883 2.16805,1.999609 v 0.683822 c -0.31625,-0.03155 -0.62243,-0.0353 -0.91857,-0.01625 -0.25383,0.01687 -0.49677,0.05436 -0.72925,0.105587 -0.0808,0.01749 -0.15749,0.04249 -0.2354,0.06466 -0.1621,0.0453 -0.31833,0.09715 -0.46829,0.159944 -0.0725,0.0303 -0.14325,0.06185 -0.21278,0.09622 -0.15666,0.07778 -0.30117,0.165567 -0.43939,0.26272 -0.0348,0.02437 -0.0771,0.0403 -0.11058,0.06623 -0.0113,0.0084 -0.0176,0.01999 -0.0285,0.02905 -0.0188,0.01468 -0.0402,0.02468 -0.0587,0.03998 -6.9e-4,6.16e-4 -6.9e-4,6.16e-4 -0.002,0.0012 -0.0972,0.08028 -0.16671,0.179625 -0.25091,0.269906 -0.0675,0.0731 -0.14618,0.140263 -0.20356,0.218985 -0.01,0.01374 -0.0247,0.02374 -0.0339,0.03686 -0.0829,0.118398 -0.13195,0.248978 -0.19143,0.376428 -0.0298,0.065 -0.0737,0.12465 -0.0972,0.19181 -0.0603,0.16807 -0.0884,0.34738 -0.10848,0.52856 -0.006,0.0509 -0.0247,0.0984 -0.0281,0.15058 0,0.008 -0.004,0.0159 -0.004,0.0244 -0.007,0.19618 0.0188,0.40173 0.0574,0.60884 0.006,0.0312 0.001,0.0603 0.007,0.0915 0.0482,0.21774 0.12524,0.43173 0.22032,0.64259 0.007,0.015 0.008,0.0303 0.0155,0.045 0.0335,0.0731 0.0787,0.14901 0.15582,0.27272 0.0519,0.0915 0.1022,0.18337 0.16252,0.27271 0.0218,0.0344 0.039,0.0694 0.0637,0.10372 0.0582,0.0819 0.12776,0.15807 0.19435,0.23523 0.0587,0.0712 0.11687,0.14151 0.17928,0.21023 l -6.8e-4,6.2e-4 c 0.0411,0.0512 0.0838,0.10246 0.12607,0.1437 0.16671,0.17025 0.35227,0.32988 0.50892,0.45203 0.0214,0.0191 0.0661,0.0597 0.0909,0.0781 0.0708,0.054 0.14744,0.1 0.22032,0.15119 0.0339,0.0234 0.0687,0.0472 0.10346,0.0709 0.1709,0.11528 0.34724,0.22149 0.52944,0.32083 0.0331,0.0175 0.0645,0.0359 0.0976,0.0531 0.19142,0.10028 0.38787,0.19056 0.58893,0.27115 0.0306,0.0122 0.0595,0.0269 0.09,0.0381 0.23331,0.0903 0.4708,0.17119 0.71291,0.23461 v 5.7814 h -0.005 z m 0,0"
     id="path906" />
</svg>
