<svg height="512" viewBox="0 0 60 60" width="512" xmlns="http://www.w3.org/2000/svg"><g id="Page-1" fill="none" fill-rule="evenodd"><g id="026---Breads" fill="rgb(0,0,0)" fill-rule="nonzero" transform="translate(-1 -1)"><path id="Shape" d="m40.256 24.145c.2263476.1383674.4984008.1811234.7562801.1188573s.4804486-.2244509.6187199-.4508573c1.649-2.694 2.516-4.382 2.553-4.452.2515657-.492638.056138-1.0959343-.4365-1.3475-.492638-.2515656-1.0959343-.056138-1.3475.4365-.007.016-.871 1.7-2.476 4.32-.1383674.2263476-.1811234.4984008-.1188573.7562801s.2244509.4804486.4508573.6187199z"/><path id="Shape" d="m45 28c-.361 0-.712.013-1.065.022 6.475-9.737 11.941-21.749 7.384-25.835-1.1116022-.92664217-2.5582742-1.34970498-3.994-1.168-6.694.454-18.412 9.281-29.158 21.955-3.2084771 3.7822109-6.1759967 7.7623946-8.885 11.917-.013.022-.031.041-.042.063-6.89 10.64-10.7 20.865-6.558 24.57.96976142.8358634 2.22075211 1.2722804 3.5 1.221 6.156 0 16.165-7.6 24.7-16.5l-1.475 12.278c-.1364496 1.1360659.2201601 2.2761768.9796454 3.1320075.7594853.8558308 1.8491239 1.3454339 2.9933546 1.3449925h23.24c1.1442307.0004414 2.2338693-.4891617 2.9933546-1.3449925.7594853-.8558307 1.116095-1.9959416.9796454-3.1320075l-1.981-16.523c-.0741365-.6624959.184184-1.3187798.69-1.753 1.0206946-.7759722 1.6430196-1.9660131 1.698-3.247 0-3.991-6.879-7-16-7zm-8.579-12.887c.9340368.5896865 1.2348221 1.8122616.681 2.768-.2557407.4545319-.6852999.7855451-1.19.917-.4838547.1233889-.9971097.0439265-1.421-.22-.8869749-.5338363-1.7210762-1.1509574-2.491-1.843-.9162483-.8288854-1.7418782-1.7527327-2.463-2.756 1-.915 1.984-1.772 2.959-2.591 1.0357058 1.5005498 2.3723825 2.7691156 3.925 3.725zm-11.632 3.521c1.3319392 2.1110851 3.0715344 3.9353313 5.117 5.366.8968855.6369066 1.1312208 1.8681603.531 2.79-.2789166.4380663-.7240276.7438319-1.233.847-.4928305.0957057-1.0034053-.0125434-1.415-.3-.749045-.5189494-1.4647849-1.084394-2.143-1.693-1.348639-1.2184696-2.5486203-2.5919867-3.575-4.092.9033333-1.0033333 1.8093333-1.976 2.718-2.918zm-7.3 8.314c1.5166242 2.0571724 3.3417929 3.8678369 5.411 5.368.8895491.6523254 1.1046068 1.8910044.487 2.805-.286351.4307705-.7359541.7261723-1.245.818-.4924232.0902291-1.000333-.0246466-1.406-.318-.8314718-.5921435-1.629059-1.2304803-2.389-1.912-1.2109026-1.0901689-2.3278492-2.2803743-3.339-3.558.7886667-1.056 1.615-2.1236667 2.479-3.203zm-2.515 13.8c.9445386.5657432 1.2720058 1.7775046.741 2.742-.2445871.4595449-.6654651.7999291-1.166.943-.4806143.1359807-.9958186.0713997-1.428-.179-1.7834056-1.0378879-3.42958763-2.2953694-4.9-3.743.634-1.128 1.32266667-2.288 2.066-3.48 1.3777436 1.4549138 2.9551658 2.7067506 4.685 3.718zm-10.957 17.287c-2.073-1.855-.925-7.8 3.214-15.7 1.4837499 1.4026497 3.124636 2.6291198 4.89 3.655.8987716.5211724 1.9706414.6550659 2.97.371 1.0203661-.287682 1.8796487-.9783575 2.38-1.913 1.0417463-1.9185377.3789462-4.317432-1.5-5.429-1.7048346-.9981821-3.2450381-2.2540248-4.566-3.723.746-1.1333333 1.5396667-2.2893333 2.381-3.468.9896045 1.2036364 2.0686712 2.3308399 3.228 3.372.815022.730982 1.6703626 1.4157219 2.562 2.051.6500412.4683324 1.4308205.7205465 2.232.721.2313738-.000377.4622652-.0211237.69-.062 1.0406009-.1862623 1.9605366-.7881198 2.548-1.667 1.2180443-1.8136005.784789-4.2656222-.981-5.552-2.0402358-1.4780213-3.822236-3.2829976-5.274-5.342.3-.359.595-.719.9-1.08.337-.4.678-.781 1.017-1.171 1.0505968 1.4714963 2.2576512 2.8247384 3.6 4.036.7413573.6644462 1.5231899 1.2822976 2.341 1.85.6426636.4467257 1.4063258.6867438 2.189.688 1.325374.0005584 2.5594422-.6751062 3.273-1.792 1.182661-1.8313743.7096494-4.2696783-1.072-5.526-1.9515934-1.374309-3.5879291-3.1487106-4.8-5.205.6093333-.61 1.217-1.2046667 1.823-1.784.7690562 1.0380126 1.6400629 1.9964549 2.6 2.861.8615937.7753744 1.7951509 1.4668363 2.788 2.065.6014755.3701551 1.2937513.5664153 2 .567 1.400563-.0019324 2.6917899-.7571856 3.38-1.977 1.0942735-1.897995.4880082-4.3217296-1.371-5.481-1.3577098-.8385097-2.5195599-1.9587555-3.407-3.285 5.332-4.248 10.14-6.882 13.409-7.1.8952568-.13166955 1.805524.10700028 2.521.661 2.568 2.3.427 11.44-8.564 24.492-7.279.674-12.418 3.384-12.418 6.832.0542911 1.2827467.6775013 2.4745446 1.7 3.251.5061277.434429.7644799 1.0911678.69 1.754l-.107.886c-12.916 14.126-24.194 19.909-27.266 17.144zm53.966-21.288c-1.0027192.8708785-1.5105952 2.1808019-1.357 3.5l1.98 16.516c.0677504.5677051-.1107002 1.1372636-.4902782 1.5648145-.379578.4275508-.9239883.6722118-1.4957218.6721855h-23.24c-.5725199.0001641-1.11766-.2450366-1.4973803-.6735124-.3797202-.4284759-.5576084-.9991395-.4886197-1.5674876l1.98-16.515c.153417-1.3191753-.3544278-2.6290182-1.357-3.5-.5735019-.4085097-.9438994-1.0436851-1.017-1.744 0-2.36 5.987-5 14-5s14 2.64 14 5c-.0722728.7013981-.4427589 1.3378182-1.017 1.747z"/><circle id="Oval" cx="41" cy="35" r="1"/><circle id="Oval" cx="37" cy="39" r="1"/><circle id="Oval" cx="41" cy="43" r="1"/><circle id="Oval" cx="53" cy="37" r="1"/><circle id="Oval" cx="47" cy="34" r="1"/><circle id="Oval" cx="50" cy="43" r="1"/><circle id="Oval" cx="45" cy="39" r="1"/></g></g></svg>