<svg id="Layer_1" height="512" viewBox="0 0 128 128" width="512" xmlns="http://www.w3.org/2000/svg" data-name="Layer 1"><path d="m112.377 73.3h-1.759v-1.25a1.75 1.75 0 0 0 -1.75-1.75h-50.551a1.75 1.75 0 0 0 -1.75 1.75v1.25h-1.75a1.75 1.75 0 0 0 -1.75 1.75v5.157a21.526 21.526 0 0 0 -5.19-1.463v-4.494a1.75 1.75 0 0 0 -1.75-1.75h-1.25v-63a4.75 4.75 0 0 0 -9.5 0v63h-1.25a1.751 1.751 0 0 0 -1.75 1.75v4.493a21.783 21.783 0 0 0 -18.5 21.507v.25.048 20.952a1.751 1.751 0 0 0 1.75 1.75h49a1.746 1.746 0 0 0 1.478-.82 1.744 1.744 0 0 0 1.473.82h32.029a1.75 1.75 0 0 0 1.721-1.432l3.721-20.135a23.742 23.742 0 0 0 9.078-18.693v-7.94a1.749 1.749 0 0 0 -1.75-1.75zm-10.516 26.378a20.566 20.566 0 0 1 -9 3.482v-1.052a1.75 1.75 0 0 0 -1.75-1.75h-15.032a1.75 1.75 0 0 0 -1.75 1.75v1.051a20.367 20.367 0 0 1 -7.956-2.829v-.08a21.614 21.614 0 0 0 -2.961-10.935l-1.753-9.515h21.186v10.279a1.75 1.75 0 0 0 1.75 1.75h16.1a1.75 1.75 0 0 0 1.75-1.75v-10.279h3.091zm-12.5 4.18v2.5h-11.532v-2.5zm17.757-27.558h-4.674v-2.5h4.674zm-8.174-2.5v14.529h-12.6v-10.25c0-.01 0-.019 0-.029s0-.019 0-.029v-4.221zm-38.877 0h22.778v2.5h-22.778zm-3.5 4.25a1.744 1.744 0 0 0 1.533 1.727l.743 4.033a21.815 21.815 0 0 0 -2.272-1.724zm-12.19-2.05v2.5h-8.5v-2.5zm-5.5-66.5a1.25 1.25 0 0 1 2.5 0v63h-2.5zm-3.254 72.5h9a18.253 18.253 0 0 1 15.617 8.826l.01.017a18.125 18.125 0 0 1 2.562 7.907h-45.378a18.274 18.274 0 0 1 18.189-16.75zm21 37.75v-3.375a1.75 1.75 0 0 0 -3.5 0v3.375h-16.167v-11.875a1.75 1.75 0 0 0 -3.5 0v11.875h-6.333v-5.75a1.75 1.75 0 0 0 -3.5 0v5.75h-6.246v-17.5h45.5v17.5zm41.528 0h-29.116l-2.658-14.411v-1a23.943 23.943 0 0 0 7.952 2.355v1.413a1.749 1.749 0 0 0 1.75 1.75h15.029a1.749 1.749 0 0 0 1.75-1.75v-1.42a24.1 24.1 0 0 0 8.157-2.434zm12.476-36.76a20.189 20.189 0 0 1 -4.469 12.7l2.94-15.908a1.746 1.746 0 0 0 1.52-1.727v-1.255h.009z"/><path d="m30.748 91.25h18.752a1.75 1.75 0 0 0 0-3.5h-18.752a1.75 1.75 0 0 0 0 3.5z"/><path d="m45.039 106.125a1.751 1.751 0 0 0 -1.75 1.75v4a1.75 1.75 0 0 0 3.5 0v-4a1.751 1.751 0 0 0 -1.75-1.75z"/></svg>