<svg id="Layer_1" height="512" viewBox="0 0 128 128" width="512" xmlns="http://www.w3.org/2000/svg" data-name="Layer 1"><path d="m95.288 120.665c-1.931-3.556-3.913-12.628-4.689-18.415h2.151a1.75 1.75 0 0 0 1.75-1.75 22.025 22.025 0 0 0 -22-22h-.75v-4.25a1.75 1.75 0 0 0 -1.75-1.75h-1.25v-63a4.75 4.75 0 0 0 -9.5 0v63h-1.25a1.75 1.75 0 0 0 -1.75 1.75v4.25h-.75a22.025 22.025 0 0 0 -22 22 1.75 1.75 0 0 0 1.75 1.75h2.15c-.825 6.246-2.893 15.086-4.693 18.418a1.751 1.751 0 0 0 1.54 2.582h59.5a1.75 1.75 0 0 0 1.538-2.585zm-32.538-111.165a1.25 1.25 0 0 1 2.5 0v63h-2.5zm-3 66.5h8.5v2.5h-8.5zm-4.25 6h17a18.527 18.527 0 0 1 18.418 16.75h-53.836a18.527 18.527 0 0 1 18.418-16.75zm27.475 37.75a36.731 36.731 0 0 1 -2.126-7.534 1.751 1.751 0 0 0 -3.448.61 43.991 43.991 0 0 0 1.814 6.924h-5.615c-1-2.589-1.555-7-2.032-11.357a1.749 1.749 0 1 0 -3.478.381 66.739 66.739 0 0 0 1.819 10.976h-12.974a39.444 39.444 0 0 0 1.223-7.07 1.75 1.75 0 0 0 -3.486-.318 35.507 35.507 0 0 1 -1.372 7.388h-6.22a103.488 103.488 0 0 0 2.406-11.07 1.75 1.75 0 1 0 -3.455-.56 98.485 98.485 0 0 1 -2.592 11.63h-6.512a90.346 90.346 0 0 0 4.006-17.5h46.134a90.147 90.147 0 0 0 4 17.5z"/><path d="m73.375 87.75h-18.75a1.75 1.75 0 0 0 0 3.5h18.75a1.75 1.75 0 0 0 0-3.5z"/></svg>