<?xml version="1.0" encoding="iso-8859-1"?>
<!-- Generator: Adobe Illustrator 17.1.0, SVG Export Plug-In . SVG Version: 6.00 Build 0)  -->
<!DOCTYPE svg PUBLIC "-//W3C//DTD SVG 1.1//EN" "http://www.w3.org/Graphics/SVG/1.1/DTD/svg11.dtd">
<svg version="1.1" id="Capa_1" xmlns="http://www.w3.org/2000/svg" xmlns:xlink="http://www.w3.org/1999/xlink" x="0px" y="0px"
	 viewBox="0 0 371.002 371.002" style="enable-background:new 0 0 371.002 371.002;" xml:space="preserve">
<path d="M283.972,0c-20.383,0-42.255,8.05-65.008,23.928c-12.354,8.62-21.477,17.187-25.547,21.229h-9.833
	c-3.318-12.462-14.697-21.672-28.189-21.672c-16.085,0-29.172,13.087-29.172,29.172c0,8.1,3.32,15.437,8.669,20.728v23.636h-20.217
	c-3.548,0-6.61,2.486-7.34,5.959l-11.077,52.744c-37.139,18.74-58.349,56.126-58.349,103.209c0,47.78,32.155,93.569,78.227,111.458
	c0.036,0.016,0.071,0.029,0.107,0.044c0.052,0.02,0.102,0.043,0.153,0.063c0.064,0.025,0.131,0.042,0.195,0.066
	c0.13,0.046,0.259,0.091,0.392,0.13c0.113,0.033,0.227,0.06,0.341,0.088c0.112,0.027,0.224,0.056,0.337,0.078
	c0.168,0.033,0.336,0.056,0.504,0.077c0.064,0.008,0.127,0.02,0.191,0.026c0.246,0.024,0.492,0.039,0.736,0.039
	c0.009,0,0.018-0.002,0.025-0.002h73.096c0.008,0,0.017,0.002,0.025,0.002c0.244,0,0.49-0.015,0.736-0.039
	c0.064-0.007,0.127-0.019,0.191-0.026c0.168-0.021,0.336-0.044,0.504-0.077c0.113-0.022,0.225-0.051,0.337-0.078
	c0.114-0.028,0.228-0.055,0.341-0.088c0.133-0.039,0.262-0.085,0.392-0.13c0.065-0.023,0.131-0.04,0.195-0.065
	c0.052-0.02,0.102-0.042,0.153-0.063c0.035-0.015,0.072-0.028,0.107-0.044c46.071-17.889,78.227-63.678,78.227-111.458
	c0-47.099-21.225-84.495-58.387-103.228l-11.597-52.793c-0.756-3.44-3.803-5.891-7.325-5.891h-20.217V73.385
	c3.637-3.597,6.332-8.141,7.686-13.228h9.748c4.072,4.206,13.184,13.095,25.519,22.044c22.777,16.525,44.686,24.903,65.12,24.903
	c27.086,0,49.121-24.023,49.121-53.553C333.093,24.024,311.058,0,283.972,0z M155.395,38.486c7.814,0,14.172,6.357,14.172,14.172
	c0,7.814-6.357,14.172-14.172,14.172c-7.815,0-14.172-6.357-14.172-14.172C141.223,44.843,147.58,38.486,155.395,38.486z
	 M244.855,203.556c9.003,15.69,13.567,34.321,13.567,55.377c0,20.893-6.903,41.459-19.965,59.475
	C226.249,335.25,209.351,348.549,190.77,356h-70.207c-18.581-7.451-35.479-20.75-47.688-37.592
	c-13.062-18.016-19.965-38.582-19.965-59.475c0-21.056,4.565-39.688,13.567-55.377c8.878-15.471,21.69-27.295,38.079-35.188h102.221
	C223.165,176.261,235.978,188.085,244.855,203.556z M199.165,153.368H112.08l8.684-41.347h69.319L199.165,153.368z M160.898,97.021
	h-11.006v-15.72c1.783,0.342,3.621,0.528,5.503,0.528c1.882,0,3.72-0.186,5.503-0.528V97.021z M283.972,92.105
	c-32.843,0-64.778-27.657-76.804-39.342C219.271,41.471,251.148,15,283.972,15c18.814,0,34.121,17.295,34.121,38.553
	C318.093,74.811,302.786,92.105,283.972,92.105z"/>
<g>
</g>
<g>
</g>
<g>
</g>
<g>
</g>
<g>
</g>
<g>
</g>
<g>
</g>
<g>
</g>
<g>
</g>
<g>
</g>
<g>
</g>
<g>
</g>
<g>
</g>
<g>
</g>
<g>
</g>
</svg>
