<?xml version="1.0" encoding="UTF-8" standalone="no"?>
<!-- Generator: Adobe Illustrator 19.0.0, SVG Export Plug-In . SVG Version: 6.00 Build 0)  -->

<svg
   xmlns:dc="http://purl.org/dc/elements/1.1/"
   xmlns:cc="http://creativecommons.org/ns#"
   xmlns:rdf="http://www.w3.org/1999/02/22-rdf-syntax-ns#"
   xmlns:svg="http://www.w3.org/2000/svg"
   xmlns="http://www.w3.org/2000/svg"
   xmlns:sodipodi="http://sodipodi.sourceforge.net/DTD/sodipodi-0.dtd"
   xmlns:inkscape="http://www.inkscape.org/namespaces/inkscape"
   version="1.1"
   id="Capa_1"
   x="0px"
   y="0px"
   viewBox="0 0 511.997 511.997"
   style="enable-background:new 0 0 511.997 511.997;"
   xml:space="preserve"
   sodipodi:docname="meat-fish.svg"
   inkscape:version="0.92.2 (5c3e80d, 2017-08-06)"><metadata
     id="metadata1007"><rdf:RDF><cc:Work
         rdf:about=""><dc:format>image/svg+xml</dc:format><dc:type
           rdf:resource="http://purl.org/dc/dcmitype/StillImage" /><dc:title></dc:title></cc:Work></rdf:RDF></metadata><defs
     id="defs1005" /><sodipodi:namedview
     pagecolor="#ffffff"
     bordercolor="#666666"
     borderopacity="1"
     objecttolerance="10"
     gridtolerance="10"
     guidetolerance="10"
     inkscape:pageopacity="0"
     inkscape:pageshadow="2"
     inkscape:window-width="1857"
     inkscape:window-height="1025"
     id="namedview1003"
     showgrid="false"
     inkscape:zoom="0.46094019"
     inkscape:cx="255.9985"
     inkscape:cy="255.9985"
     inkscape:window-x="63"
     inkscape:window-y="27"
     inkscape:window-maximized="1"
     inkscape:current-layer="g970" /><g
     id="g970"><g
       id="g968"
       transform="matrix(0.68220369,0,0,0.67796999,162.71091,207.18434)"><g
         id="g966"><path
           d="M 510.646,261.469 C 468.003,185.134 397.9,138.456 315.733,129.806 274.538,77.776 145.277,64.595 139.698,64.052 c -3.635,-0.375 -7.292,1.208 -9.521,4.167 -2.24,2.938 -2.792,6.833 -1.458,10.281 12.673,32.896 25.656,70.313 29.092,85.621 -23.473,10.741 -43.99,22.163 -57.217,31.681 C 71.906,149.906 13.344,149.333 10.667,149.333 4.771,149.333 0,154.104 0,160 0,221.802 21.542,252.823 35.948,266.667 21.542,280.51 0,311.531 0,373.333 0,379.229 4.771,384 10.667,384 c 2.677,0 61.24,-0.573 89.927,-46.469 17.573,12.646 47.957,28.637 81.159,41.931 -7.337,11.867 -11.086,30.742 -11.086,57.871 0,5.896 4.771,10.667 10.667,10.667 3.172,0 75.708,-0.629 111.832,-43.003 91.87,-1.775 170.978,-49.891 217.48,-133.133 1.802,-3.229 1.802,-7.166 0,-10.395 z M 154.906,87.417 c 35.841,5.188 94.682,17.952 127.934,40.799 -30.66,1.198 -69.78,12.79 -105.243,27.336 -4.722,-18.75 -15.199,-48.043 -22.691,-68.135 z m 37.344,338.635 c 1.421,-29.671 8.267,-37.254 10.186,-38.806 20.786,7.296 41.846,13.094 60.969,16.004 -23.139,16.281 -54.682,21.348 -71.155,22.802 z m 8.948,-39.198 0.004,-0.029 c 0.029,0.01 0.059,0.018 0.087,0.029 -0.06,-0.008 -0.027,0.009 -0.091,0 z M 288,384 c -62.333,0 -164.25,-51.177 -183.125,-70.49 -2.021,-2.073 -4.781,-3.208 -7.625,-3.208 -0.646,0 -1.302,0.063 -1.948,0.177 -3.49,0.646 -6.438,3 -7.844,6.26 -14.396,33.385 -48.25,42.5 -65.844,44.99 3.333,-66.844 34.969,-84.708 36.594,-85.573 3.51,-1.802 5.677,-5.438 5.729,-9.385 0.052,-3.99 -2.188,-7.708 -5.719,-9.583 -1.427,-0.76 -33.25,-18.5 -36.604,-85.521 17.583,2.573 51.562,11.823 65.844,44.927 1.406,3.26 4.354,5.615 7.844,6.26 3.521,0.656 7.094,-0.49 9.573,-3.031 18.875,-19.313 120.792,-70.49 183.125,-70.49 84.219,0 157.167,42.677 201.042,117.333 C 445.167,341.323 372.219,384 288,384 Z"
           id="path958"
           inkscape:connector-curvature="0" /><path
           d="m 320,266.666 c 0,-49.083 19.365,-79.146 19.563,-79.448 3.229,-4.917 1.875,-11.521 -3.021,-14.771 -4.896,-3.229 -11.5,-1.906 -14.75,2.969 -0.948,1.417 -23.125,35.333 -23.125,91.25 0,55.917 22.177,89.833 23.125,91.25 2.052,3.083 5.438,4.75 8.885,4.75 2.031,0 4.083,-0.583 5.906,-1.792 4.906,-3.271 6.229,-9.885 2.958,-14.792 C 339.344,345.792 320,316.198 320,266.666 Z"
           id="path960"
           inkscape:connector-curvature="0" /><path
           d="m 293.875,172.448 c -4.906,-3.229 -11.49,-1.906 -14.75,2.969 -0.948,1.416 -23.125,35.333 -23.125,91.249 0,29.865 6.437,53.333 11.844,67.76 1.604,4.281 5.667,6.927 9.99,6.927 1.24,0 2.51,-0.219 3.74,-0.677 5.521,-2.063 8.313,-8.208 6.25,-13.729 -4.781,-12.781 -10.49,-33.615 -10.49,-60.281 0,-49.083 19.365,-79.146 19.563,-79.448 3.228,-4.916 1.874,-11.52 -3.022,-14.77 z"
           id="path962"
           inkscape:connector-curvature="0" /><circle
           cx="383.99899"
           cy="234.66499"
           r="21.333"
           id="circle964" /></g></g><g
       transform="matrix(8.3934426,0,0,8.3934426,1.9318656,15.824944)"
       style="fill:none;fill-rule:evenodd"
       id="Page-1"><g
         id="008---Steak"
         transform="matrix(0.51767984,0,0,0.53849886,4.640961e-4,0.0333096)"
         style="fill:#000000;fill-rule:nonzero"><path
           id="Shape"
           d="m 11.15,14.829 c -1.2680814,1.518978 -2.0181561,3.403099 -2.141,5.378 -0.119,3.444 2.136,6.39 4.286,8 1.891822,1.295273 3.926152,2.368975 6.063,3.2 1.113,0.486 2.263,0.989 3.4,1.56 4.230952,2.054611 7.941996,5.040198 10.855,8.733 0.762,0.974 1.453,1.99 2.123,2.972 1.061287,1.753401 2.364063,3.348713 3.87,4.739 1.261956,1.011568 2.833692,1.557844 4.451,1.547 1.282642,-0.0068 2.545064,-0.320204 3.682,-0.914 1.780097,-0.988652 3.29585,-2.391556 4.419,-4.09 0.9309,-1.352078 1.68439,-2.818057 2.242,-4.362 1.394348,-4.120298 1.903441,-8.488478 1.494,-12.819 C 54.952,16.473 48.265,6.514 39.632,4.555 32.463,2.931 23.89,5.445 14.264,11.97 c -0.325,0.219 -0.66,0.468 -1.028,0.766 l -0.466,0.38 c -0.582379,0.529378 -1.123921,1.102008 -1.62,1.713 z m 2.919,-0.2 0.421,-0.341 c 0.318,-0.258 0.606,-0.473 0.889,-0.664 7.394,-5.012 14.068,-7.554 19.837,-7.554 1.334633,-0.00329 2.665487,0.1419414 3.968,0.433 7.787,1.769 13.836,10.989 14.716,22.421 0.386012,4.044835 -0.08524,8.125609 -1.383,11.976 -0.497061,1.383349 -1.169192,2.697366 -2,3.91 -0.939099,1.431406 -2.207951,2.616583 -3.7,3.456 -1.897964,1.039072 -4.227591,0.87574 -5.962,-0.418 -1.343422,-1.271492 -2.509863,-2.717771 -3.468,-4.3 -0.688,-1.009 -1.4,-2.052 -2.2,-3.075 -3.094869,-3.928034 -7.038299,-7.104999 -11.535,-9.293 -1.186,-0.6 -2.361,-1.108 -3.5,-1.6 -1.993144,-0.774341 -3.892773,-1.770615 -5.663,-2.97 -1.746,-1.306 -3.578,-3.654 -3.486,-6.33 0.107425,-1.541437 0.702851,-3.008635 1.7,-4.189 0.419222,-0.519238 0.875767,-1.0072 1.366,-1.46 z"
           inkscape:connector-curvature="0" /><path
           id="path3"
           d="m 6,35.927 c 2.1822388,1.522674 4.535259,2.784599 7.011,3.76 1.075,0.471 2.187,0.958 3.247,1.49 3.770672,1.835082 7.079046,4.496752 9.679,7.787 0.69,0.888 1.354,1.867 2,2.813 1.297585,2.137152 2.902422,4.071852 4.763,5.742 2.016198,1.612875 4.523068,2.488251 7.105,2.481 0.704325,-2.58e-4 1.407185,-0.06418 2.1,-0.191 1.960606,-0.397489 3.772073,-1.332305 5.232,-2.7 2.515,-2.271 6.946,-6.454 8.357,-8.943 v -0.009 c 1.09778,-1.607924 1.988154,-3.348017 2.65,-5.179 1.593733,-4.657024 2.182998,-9.598802 1.729,-14.5 C 58.786,14.212 51,3.035 40.512,0.654 c -8.3,-1.883 -17.884,0.81 -28.493,8 C 11.903,8.732 11.786,8.819 11.67,8.902 11.6638,8.9039 11.65782,8.90624 11.652,8.909 8.5557298,11.129695 5.6879545,13.652774 3.091,16.441 1.2391522,18.680838 0.15809593,21.457641 0.008,24.36 -0.168,29.442 2.988,33.667 6,35.927 Z M 40.068,2.6 c 11.125,2.528 16.963,14.889 17.815,26.019 0.432475,4.617712 -0.116887,9.274677 -1.612,13.665 -0.61386,1.7046 -1.444335,3.323202 -2.471,4.816 -1.308341,1.964207 -3.071649,3.583431 -5.14,4.72 -3.293274,1.805872 -7.346424,1.472176 -10.3,-0.848 C 36.69083,49.464757 35.250045,47.722476 34.083,45.8 33.432,44.844 32.758,43.855 32.04,42.937 29.309169,39.478803 25.831815,36.682768 21.868,34.758 20.768,34.209 19.646,33.717 18.557,33.242 16.278365,32.352928 14.111354,31.200791 12.1,29.809 9.544,27.9 6.864,24.351 7.009,20.137 7.1395969,17.72386 8.0486711,15.418019 9.6,13.565 c 0.569507,-0.703828 1.192347,-1.362775 1.863,-1.971 l 0.511,-0.413 c 0.407,-0.33 0.788,-0.614 1.165,-0.868 C 21.224,4.832 28.626,2.074 35.217,2.074 36.848549,2.06802 38.475653,2.2444476 40.068,2.6 Z M 4.6,17.749 C 4.612,17.736 5,17.319 5.637,16.678 5.2657434,17.772306 5.0539054,18.914345 5.008,20.069 4.839,25.052 7.94,29.2 10.9,31.411 c 2.135279,1.482917 4.436139,2.711877 6.856,3.662 1.065,0.465 2.167,0.946 3.216,1.472 3.69715,1.791493 6.941114,4.396169 9.489,7.619 0.68,0.869 1.335,1.83 1.968,2.76 1.273951,2.088003 2.847756,3.977512 4.671,5.608 1.983754,1.575461 4.445787,2.426712 6.979,2.413 0.954124,-4.54e-4 1.904692,-0.116295 2.831,-0.345 -0.364,0.335 -0.727,0.671 -1.112,1.019 -1.183472,1.119327 -2.654402,1.888199 -4.249,2.221 -2.686469,0.52507 -5.467716,-0.162557 -7.6,-1.879 -1.704611,-1.547097 -3.174419,-3.334584 -4.363,-5.306 -0.66,-0.972 -1.342,-1.978 -2.07,-2.917 C 24.73232,44.212099 21.189921,41.358767 17.152,39.39 16.047,38.835 14.91,38.337 13.811,37.856 11.477271,36.941463 9.2585277,35.757082 7.2,34.327 4.591,32.37 1.856,28.742 2.005,24.427 2.1354616,21.98117 3.0447583,19.641176 4.6,17.749 Z"
           inkscape:connector-curvature="0" /><path
           id="path5"
           d="m 34.943,25.09 c 1.422818,0.588115 2.945479,0.897061 4.485,0.91 1.340804,0.01536 2.66767,-0.273193 3.881,-0.844 1.658567,-0.771 2.907015,-2.216054 3.429,-3.969 C 47.951,17.015 44.743,11.922 39.587,9.835 36.93153,8.6408264 33.896808,8.6157941 31.222,9.766 29.563211,10.536984 28.314442,11.981987 27.792,13.735 26.579,17.91 29.787,23 34.943,25.09 Z M 29.712,14.3 c 0.361366,-1.214308 1.232946,-2.211442 2.388,-2.732 0.941609,-0.434694 1.969031,-0.651731 3.006,-0.635 1.282295,0.01193 2.550452,0.269226 3.736,0.758 4.232,1.714 6.916,5.725 5.981,8.941 -0.360799,1.21175 -1.229947,2.207147 -2.382,2.728 -2.1692,0.886652 -4.607579,0.842174 -6.743,-0.123 -4.237,-1.715 -6.921,-5.725 -5.986,-8.937 z"
           inkscape:connector-curvature="0" /><path
           id="path7"
           d="m 36.24,20.624 c 1.010694,0.420952 2.093195,0.642682 3.188,0.653 0.83401,0.01721 1.661483,-0.15047 2.423,-0.491 0.512527,-0.203399 0.914563,-0.614886 1.106,-1.132 0.07892,-0.777333 -0.14854,-1.554788 -0.634,-2.167 -0.995439,-1.441681 -2.40025,-2.551806 -4.033,-3.187 -1.7702,-0.81774 -3.79783,-0.87591 -5.612,-0.161 -0.509941,0.20261 -0.909813,0.612297 -1.1,1.127 -0.32,1.096 1.209,3.96 4.662,5.358 z m 1.3,-4.466 c 1.250768,0.478836 2.330167,1.32007 3.1,2.416 0.09532,0.144764 0.178922,0.296915 0.25,0.455 -1.286351,0.406156 -2.678363,0.314069 -3.9,-0.258 -1.430478,-0.515059 -2.622631,-1.536448 -3.351,-2.871 1.286327,-0.406354 2.678412,-0.314262 3.9,0.258 z"
           inkscape:connector-curvature="0" /></g></g></g><g
     id="g972" /><g
     id="g974" /><g
     id="g976" /><g
     id="g978" /><g
     id="g980" /><g
     id="g982" /><g
     id="g984" /><g
     id="g986" /><g
     id="g988" /><g
     id="g990" /><g
     id="g992" /><g
     id="g994" /><g
     id="g996" /><g
     id="g998" /><g
     id="g1000" /></svg>