<svg id="Layer_1" enable-background="new 0 0 512 512" height="512" viewBox="0 0 512 512" width="512" xmlns="http://www.w3.org/2000/svg"><path d="m512 352.4c0-12.598-4.906-24.435-13.802-33.318-8.897-8.909-20.734-13.815-33.332-13.815h-9.854l-23.844-23.844c-23.12-23.121-50.159-41.188-80.366-53.7s-62.104-18.856-94.803-18.856-64.596 6.344-94.803 18.856-57.246 30.579-80.366 53.7l-23.844 23.844h-9.854c-12.598 0-24.435 4.906-33.318 13.801-8.908 8.897-13.814 20.734-13.814 33.332s4.906 24.435 13.802 33.318c6.397 6.406 14.319 10.729 22.946 12.66l44.798 104.531c2.363 5.515 7.787 9.091 13.787 9.091h321.334c6 0 11.424-3.576 13.787-9.091l44.798-104.531c8.626-1.93 16.545-6.25 22.932-12.646 8.91-8.897 13.816-20.735 13.816-33.332zm-105.224 129.6h-301.552l-35.342-82.467h372.237zm70.196-117.482c-3.229 3.234-7.529 5.015-12.105 5.015h-417.733c-4.576 0-8.876-1.781-12.119-5.029-3.234-3.229-5.015-7.527-5.015-12.104s1.781-8.875 5.028-12.119c3.229-3.234 7.529-5.015 12.105-5.015h16.067c3.979 0 7.794-1.58 10.606-4.394l28.237-28.237c20.32-20.321 44.085-36.2 70.634-47.196 26.549-10.997 54.582-16.573 83.322-16.573s56.773 5.576 83.322 16.573 50.313 26.875 70.634 47.196l28.237 28.237c2.813 2.813 6.628 4.394 10.606 4.394h16.066c4.576 0 8.876 1.781 12.119 5.029 3.233 3.229 5.015 7.528 5.015 12.104s-1.779 8.876-5.026 12.119z"/><path d="m165.061 293.593-16.067 16.066c-5.857 5.858-5.858 15.355 0 21.213 5.858 5.859 15.357 5.857 21.213 0l16.067-16.066c5.857-5.858 5.858-15.355.001-21.213-5.859-5.857-15.356-5.858-21.214 0z"/><path d="m346.939 293.593c-5.857-5.857-15.354-5.857-21.214 0-5.857 5.858-5.856 15.355.001 21.213l16.067 16.066c5.859 5.859 15.357 5.856 21.213 0 5.858-5.858 5.857-15.355 0-21.213z"/><path d="m256 289.2c-8.284 0-15 6.716-15 15v16.066c0 8.284 6.716 15 15 15s15-6.716 15-15v-16.066c0-8.284-6.716-15-15-15z"/><path d="m245.322 68.729c-23.472 23.542-23.479 61.773-.017 85.32 5.717 5.816 15.033 5.988 20.971.4 6.033-5.678 6.316-15.175.639-21.208-.104-.11-.209-.219-.316-.326-11.865-11.866-11.865-31.172 0-43.038.024-.024.049-.049.074-.075 23.502-23.567 23.483-61.863-.066-85.412-5.857-5.858-15.352-5.854-21.209.004-5.858 5.857-5.854 15.359.004 21.217 11.865 11.866 11.865 31.172 0 43.037-.027.028-.053.054-.08.081z"/><path d="m98.032 100.93c-23.472 23.542-23.479 61.773-.017 85.32 5.717 5.816 15.033 5.988 20.971.4 6.033-5.678 6.316-15.175.639-21.208-.104-.11-.209-.219-.316-.326-11.865-11.866-11.865-31.172 0-43.038.024-.024.049-.049.074-.075 23.502-23.567 23.483-61.863-.066-85.413-5.857-5.858-15.352-5.854-21.209.004-5.858 5.857-5.854 15.359.004 21.217 11.865 11.866 11.865 31.172 0 43.038-.027.028-.053.054-.08.081z"/><path d="m392.672 100.93c-23.472 23.542-23.479 61.773-.017 85.32 5.717 5.816 15.033 5.988 20.971.4 6.033-5.678 6.316-15.175.639-21.208-.104-.11-.209-.219-.316-.326-11.865-11.866-11.865-31.172 0-43.038.024-.024.049-.049.074-.075 23.502-23.567 23.483-61.863-.066-85.413-5.857-5.858-15.352-5.854-21.209.004-5.858 5.857-5.854 15.359.004 21.217 11.865 11.866 11.865 31.172 0 43.038-.027.028-.054.054-.08.081z"/></svg>